        <svg width="142" height="56" viewBox="0 0 142 56" fill="none" xmlns="http://www.w3.org/2000/svg">
        <g id="league-of-legends-logo" clip-path="url(#clip0_61_381)">
        <g id="Group">
        <path id="Vector" d="M130.061 42.0111C127.8 41.4305 125.828 40.9555 125.828 39.0819C125.828 37.6041 126.932 36.7069 128.72 36.7069C130.508 36.7069 131.744 37.6833 132.165 39.3722L136.609 37.2347C135.452 34.2527 132.559 32.4847 128.852 32.4847C124.092 32.4847 120.752 35.4138 120.752 39.5833C120.752 44.7027 124.46 45.6527 127.721 46.4972C130.009 47.0777 131.981 47.6055 131.981 49.5319C131.981 51.1152 130.719 52.1444 128.746 52.1444C126.774 52.1444 125.17 51.0625 124.723 49.4791L120.279 51.6166C121.515 54.5458 124.671 56.3402 128.536 56.3402C133.716 56.3402 137.056 53.4375 137.056 48.9513C137.109 43.7791 133.191 42.8027 130.061 42.0111Z" fill="#C89B3C"/>
        <path id="Vector_2" d="M131.113 22.193H133.69V18.6833H136.32L136.977 16.3875H133.69V14.1708H137.424V11.8222H131.113V22.193Z" fill="#C89B3C"/>
        <path id="Vector_3" d="M124.618 22.5097C127.589 22.5097 130.035 20.0819 130.035 17.1264C130.035 14.1444 127.616 11.743 124.618 11.743C121.646 11.743 119.201 14.1708 119.201 17.1264C119.227 20.0819 121.646 22.5097 124.618 22.5097ZM124.618 14.2236C126.222 14.2236 127.511 15.5167 127.511 17.1264C127.511 18.7097 126.222 20.0292 124.618 20.0292C123.014 20.0292 121.725 18.7361 121.725 17.1264C121.725 15.5167 123.04 14.2236 124.618 14.2236Z" fill="#C89B3C"/>
        <path id="Vector_4" d="M76.3118 32.6166L77.4162 34.9125V55.6805H82.2284V40.5069L93.0362 55.6805H98.0588V32.6166H93.2466V48.0014L82.5177 32.6166H76.3118Z" fill="#C89B3C"/>
        <path id="Vector_5" d="M112.68 33.5666C111.26 32.9861 109.208 32.6166 108.13 32.6166H100.294V55.6805H108.104C109.708 55.6805 111.233 55.3903 112.653 54.8097C114.073 54.2291 115.335 53.4111 116.414 52.3819C117.492 51.3527 118.333 50.1389 118.938 48.7403C119.543 47.3416 119.858 45.8375 119.858 44.2014C119.858 42.5916 119.543 41.0611 118.938 39.6625C118.333 38.2639 117.492 37.05 116.414 36.0208C115.362 34.9916 114.126 34.1736 112.68 33.5666ZM114.257 46.893C113.915 47.7375 113.416 48.45 112.811 49.0569C112.206 49.6639 111.496 50.1652 110.655 50.5083C109.813 50.8777 108.919 51.0361 107.972 51.0361H105.238V37.2875H107.999C108.945 37.2875 109.84 37.4722 110.681 37.8416C111.522 38.2111 112.232 38.6861 112.837 39.293C113.442 39.9 113.915 40.6389 114.284 41.4833C114.625 42.3278 114.809 43.225 114.809 44.175C114.809 45.1514 114.625 46.0486 114.257 46.893Z" fill="#C89B3C"/>
        <path id="Vector_6" d="M21.5366 32.6166V55.6805H35.2107V51.2208L26.5329 51.168V46.1277H33.2385L34.4481 41.7736H26.5329V37.1027H35.2107V32.6166H21.5366Z" fill="#C89B3C"/>
        <path id="Vector_7" d="M74.4183 41.7736H66.4768V37.1027H75.1809V32.6166H61.5068V55.6805H75.1809V51.2208L66.4768 51.168V46.1277H73.2087L74.4183 41.7736Z" fill="#C89B3C"/>
        <path id="Vector_8" d="M85.6469 26.6527C86.4358 27.4972 87.4088 28.1305 88.5395 28.5791C89.6702 29.0277 90.9851 29.2652 92.4313 29.2652C93.8776 29.2652 95.1925 29.0541 96.3232 28.6055C97.4802 28.1569 98.4532 27.5236 99.2421 26.7055C100.031 25.8875 100.662 24.8847 101.083 23.6972C101.53 22.5097 101.74 21.1902 101.74 19.7652L101.819 5.43608H96.7965L96.7176 19.475C96.7176 21.0319 96.3495 22.2458 95.6132 23.143C94.8769 24.0402 93.8251 24.4889 92.4313 24.4625C91.0376 24.4625 89.9858 24.0139 89.2758 23.0902C88.5658 22.193 88.1976 20.9527 88.1976 19.3958L88.2765 5.3833H83.2539L83.175 19.6333C83.175 21.0847 83.3854 22.4041 83.8062 23.5916C84.2532 24.8055 84.858 25.8083 85.6469 26.6527Z" fill="#C89B3C"/>
        <path id="Vector_9" d="M61.507 25.6236C62.5851 26.7055 63.8474 27.5764 65.2937 28.2097C66.7663 28.843 68.3177 29.1597 70.027 29.1597C71.6837 29.1597 73.2089 28.8958 74.6026 28.3152C75.9963 27.7347 77.2059 26.943 78.2314 25.9402C79.257 24.9375 80.0459 23.7236 80.6244 22.325C81.0451 21.3222 81.3081 20.2666 81.4396 19.1583C81.4922 18.7361 81.5448 16.8097 81.4922 15.9389H70.0796L68.0548 20.1083H76.1803C75.8648 21.4277 75.1548 22.5097 74.0503 23.3277C72.9459 24.1458 71.6311 24.5416 70.0796 24.5416C69.0803 24.5416 68.16 24.3305 67.3185 23.9611C66.4507 23.5652 65.7144 23.0375 65.0833 22.3777C64.4522 21.718 63.9525 20.9527 63.5844 20.0555C63.2163 19.1583 63.0585 18.2083 63.0585 17.2055C63.0585 16.2027 63.2426 15.2527 63.6107 14.3555C63.9788 13.4583 64.4785 12.693 65.1359 12.0333C65.767 11.3736 66.5296 10.8722 67.3711 10.5027C68.2126 10.1333 69.1329 9.94858 70.1322 9.94858C71.4733 9.94858 72.6566 10.2652 73.6822 10.8458C74.7077 11.4527 75.5229 12.2972 76.0751 13.4319L80.5718 11.2944C79.6251 9.4208 78.2577 7.96941 76.417 6.91386C74.5763 5.8583 72.4988 5.30414 70.1585 5.30414C68.5018 5.30414 66.9503 5.59442 65.4777 6.22775C64.0051 6.83469 62.7166 7.70552 61.6122 8.76108C60.5077 9.84302 59.64 11.1097 59.0088 12.5347C58.3514 13.9861 58.0359 15.5166 58.0359 17.1527C58.0359 18.7889 58.3251 20.3458 58.9563 21.7972C59.5874 23.275 60.4288 24.5416 61.507 25.6236Z" fill="#C89B3C"/>
        <path id="Vector_10" d="M4.57544 5.4361L5.70618 7.8111V26.2042L4.57544 28.5792H18.5914L19.8536 24.0667H10.6762V5.4361H4.57544Z" fill="#C89B3C"/>
        <path id="Vector_11" d="M4.57544 32.5375L5.70618 34.9389V53.3055L4.57544 55.7069H18.5914L19.8536 51.168H10.6762V32.5375H4.57544Z" fill="#C89B3C"/>
        <path id="Vector_12" d="M21.5366 5.48883V28.5791H35.2107V24.1194L26.5329 24.0666V18.9999H33.2385L34.4481 14.6722H26.5329V10.0013H35.2107V5.48883H21.5366Z" fill="#C89B3C"/>
        <path id="Vector_13" d="M104.002 5.48883V28.5791H117.676V24.1194L108.972 24.0666V18.9999H115.704L116.913 14.6722H108.972V10.0013H117.676V5.48883H104.002Z" fill="#C89B3C"/>
        <path id="Vector_14" d="M41.8899 28.5792L43.6254 24.0667H52.8291L54.6173 28.5792H59.7977L50.5677 5.4361H43.494L44.9665 8.44443L36.8147 28.5792H41.8899ZM48.3062 11.9014L51.1725 19.6597H45.3084L48.3062 11.9014Z" fill="#C89B3C"/>
        <path id="Vector_15" d="M45.5714 51.1944C45.5188 51.168 45.4399 51.1416 45.3873 51.1153C44.5196 50.7194 43.7833 50.1917 43.1521 49.5319C42.521 48.8722 42.0214 48.1069 41.6533 47.2097C41.2851 46.3125 41.1273 45.3625 41.1273 44.3597C41.1273 43.3569 41.3114 42.4069 41.6796 41.5097C42.0477 40.6125 42.5473 39.8472 43.2047 39.1875C43.8358 38.5278 44.5984 38.0264 45.4399 37.6569C46.2814 37.2875 47.2018 37.1028 48.201 37.1028C49.5421 37.1028 50.7255 37.4194 51.751 38C52.7766 38.6069 53.5918 39.4514 54.144 40.5861L58.6407 38.4486C57.694 36.575 56.3266 35.1236 54.4859 34.068C52.6451 33.0125 50.5677 32.4583 48.2273 32.4583C46.5707 32.4583 45.0192 32.7486 43.5466 33.3819C42.074 33.9889 40.7855 34.8597 39.681 35.9153C38.5766 36.9972 37.7088 38.2639 37.0777 39.6889C36.4203 41.1403 36.1047 42.6708 36.1047 44.3069C36.1047 45.943 36.394 47.5 37.0251 48.9514C37.6562 50.4028 38.4977 51.6694 39.5759 52.7514C40.6014 53.7805 41.811 54.625 43.1784 55.2319L45.5714 51.1944Z" fill="#C89B3C"/>
        <path id="Vector_16" d="M59.561 43.1194H48.1221L46.0973 47.2888H54.2228C53.9073 48.6083 53.1973 49.6902 52.0928 50.5083C50.9884 51.3263 49.6736 51.7222 48.1221 51.7222C47.4384 51.7222 46.781 51.6166 46.1499 51.4319L45.0454 55.9708C46.0184 56.2083 47.0176 56.3402 48.0695 56.3402C49.7262 56.3402 51.2513 56.0763 52.645 55.4958C54.0387 54.9152 55.2484 54.1236 56.2739 53.1208C57.2995 52.118 58.0884 50.9041 58.6669 49.5055C59.0876 48.5027 59.3506 47.4472 59.4821 46.3388C59.5347 45.9166 59.6136 43.9902 59.561 43.1194Z" fill="#C89B3C"/>
        </g>
        </g>
        <defs>
        <clipPath id="clip0_61_381">
        <rect width="142" height="56" fill="white"/>
        </clipPath>
        </defs>
        </svg>
